<svg width="33" height="32" viewBox="0 0 33 32" fill="none" xmlns="http://www.w3.org/2000/svg">
<ellipse cx="16.5" cy="16" rx="16.5" ry="16" fill="white"/>
<path d="M7.25 22L9.2 18.85C10.325 17.125 12.2 16 14.3 16H19.25C19.25 17.65 17.9 19 16.25 19H14.75" stroke="#646464" stroke-width="2" stroke-miterlimit="10" stroke-linecap="round" stroke-linejoin="round"/>
<path d="M17 19H22.25L23.15 17.8C23.975 16.675 25.325 16 26.75 16L24.725 19.6C23.675 21.55 21.575 22.75 19.4 22.75C15.875 22.75 12.425 23.8 9.5 25.75" stroke="#646464" stroke-width="2" stroke-miterlimit="10" stroke-linecap="round" stroke-linejoin="round"/>
<path d="M23.0754 13.675C23.1504 13.225 23.2254 12.7 23.2254 12.25C23.2254 11.725 23.1504 11.275 23.0754 10.825C22.3254 10.9 21.5754 10.6 21.2004 9.85C20.8254 9.175 20.9004 8.35 21.3504 7.75C20.6754 7.075 19.7754 6.55 18.8004 6.25C18.5004 6.925 17.8254 7.45 17.0004 7.45C16.1754 7.45 15.5004 6.925 15.2004 6.25C14.2254 6.55 13.4004 7.075 12.6504 7.75C13.1004 8.35 13.1754 9.175 12.8004 9.85C12.4254 10.525 11.6754 10.9 10.9254 10.825C10.7754 11.275 10.7754 11.725 10.7754 12.25C10.7754 12.775 10.8504 13.225 10.9254 13.675" stroke="#646464" stroke-width="2" stroke-miterlimit="10" stroke-linecap="round" stroke-linejoin="round"/>
<path d="M18.65 13.75C19.025 13.375 19.25 12.85 19.25 12.25C19.25 10.975 18.275 10 17 10C15.725 10 14.75 10.975 14.75 12.25C14.75 12.85 14.975 13.375 15.35 13.75" stroke="#646464" stroke-width="2" stroke-miterlimit="10" stroke-linecap="round" stroke-linejoin="round"/>
</svg>
