<svg width="33" height="32" viewBox="0 0 33 32" fill="none" xmlns="http://www.w3.org/2000/svg">
<ellipse cx="16.5" cy="16" rx="16.5" ry="16" fill="white"/>
<path d="M7.25 8.5V19.75C7.25 20.575 7.925 21.25 8.75 21.25H25.25C26.075 21.25 26.75 20.575 26.75 19.75V8.5C26.75 7.675 26.075 7 25.25 7H8.75C7.925 7 7.25 7.675 7.25 8.5Z" stroke="#646464" stroke-width="2" stroke-miterlimit="10" stroke-linecap="round" stroke-linejoin="round"/>
<path d="M7.25 18.25H26.75" stroke="#646464" stroke-width="2" stroke-miterlimit="10" stroke-linecap="round" stroke-linejoin="round"/>
<path d="M11.75 25.75H22.25" stroke="#646464" stroke-width="2" stroke-miterlimit="10" stroke-linecap="round" stroke-linejoin="round"/>
<path d="M14.7504 21.25C14.7504 22.825 14.2254 24.7 13.4004 25.75" stroke="#646464" stroke-width="2" stroke-miterlimit="10" stroke-linecap="round"/>
<path d="M20.6 25.75C19.775 24.7 19.25 22.825 19.25 21.25" stroke="#646464" stroke-width="2" stroke-miterlimit="10" stroke-linecap="round"/>
<path d="M19.1 16C19.175 15.775 19.25 15.55 19.25 15.25C19.25 13.975 18.275 13 17 13C15.725 13 14.75 13.975 14.75 15.25C14.75 15.55 14.825 15.775 14.9 16" stroke="#646464" stroke-width="2" stroke-miterlimit="10" stroke-linecap="round" stroke-linejoin="round"/>
<path d="M23.2254 16C23.2254 15.775 23.3004 15.475 23.3004 15.25C23.3004 14.725 23.2254 14.275 23.1504 13.825C22.4004 13.9 21.6504 13.6 21.2754 12.85C20.9004 12.175 20.9754 11.35 21.4254 10.75C20.7504 10.075 19.8504 9.55 18.8754 9.25C18.5004 9.925 17.8254 10.45 17.0004 10.45C16.1754 10.45 15.5004 9.925 15.2004 9.25C14.2254 9.55 13.4004 10.075 12.6504 10.75C13.1004 11.35 13.1754 12.175 12.8004 12.85C12.4254 13.525 11.6004 13.9 10.9254 13.825C10.8504 14.275 10.7754 14.8 10.7754 15.25C10.7754 15.475 10.7754 15.775 10.8504 16" stroke="#646464" stroke-width="2" stroke-miterlimit="10" stroke-linecap="round" stroke-linejoin="round"/>
</svg>
