<svg width="33" height="32" viewBox="0 0 33 32" fill="none" xmlns="http://www.w3.org/2000/svg">
<ellipse cx="16.5" cy="16" rx="16.5" ry="16" fill="white"/>
<path d="M21.5 25.75C24.3995 25.75 26.75 23.3995 26.75 20.5C26.75 17.6005 24.3995 15.25 21.5 15.25C18.6005 15.25 16.25 17.6005 16.25 20.5C16.25 23.3995 18.6005 25.75 21.5 25.75Z" stroke="#646464" stroke-width="2" stroke-miterlimit="10" stroke-linecap="round" stroke-linejoin="round"/>
<path d="M21.5 16.75V20.5L23.75 19" stroke="#646464" stroke-width="2" stroke-miterlimit="10" stroke-linejoin="round"/>
<path d="M8.75 13H20.75" stroke="#646464" stroke-width="2" stroke-miterlimit="10" stroke-linecap="round" stroke-linejoin="round"/>
<path d="M12.8746 10.075L11.9746 6.925C13.6996 6.025 15.7996 6.025 17.5246 6.925L16.6246 10.075" stroke="#646464" stroke-width="2" stroke-miterlimit="10" stroke-linecap="round" stroke-linejoin="round"/>
<path d="M17.375 7.67505C18.875 8.57505 19.85 10.225 19.85 12.1V13" stroke="#646464" stroke-width="2" stroke-miterlimit="10" stroke-linecap="round" stroke-linejoin="round"/>
<path d="M9.65039 13V12.1C9.65039 10.225 10.6254 8.57505 12.1254 7.67505" stroke="#646464" stroke-width="2" stroke-miterlimit="10" stroke-linecap="round" stroke-linejoin="round"/>
<path d="M11 13V14.5C11 16.075 11.675 17.5 12.875 18.25C12.875 19.825 11.9 21.175 10.475 21.55C8.825 22 7.625 23.5 7.25 25.3C7.25 25.525 7.4 25.75 7.625 25.75H14.75" stroke="#646464" stroke-width="2" stroke-miterlimit="10" stroke-linecap="round" stroke-linejoin="round"/>
</svg>
