<svg width="250" height="40" viewBox="0 0 250 40" fill="none" xmlns="http://www.w3.org/2000/svg">
<rect width="250" height="40" fill="white"/>
<path d="M9.504 27.308C7.11333 27.308 5.126 26.56 3.542 25.064C1.958 23.5387 1.166 21.6173 1.166 19.3C1.166 16.9533 1.95067 15.032 3.52 13.536C5.104 12.04 7.09867 11.292 9.504 11.292C11 11.292 12.3567 11.6147 13.574 12.26V15.45C12.386 14.658 11.0367 14.262 9.526 14.262C8.074 14.262 6.84933 14.7387 5.852 15.692C4.884 16.6307 4.4 17.8333 4.4 19.3C4.4 20.7667 4.89867 21.9767 5.896 22.93C6.87867 23.8687 8.13267 24.338 9.658 24.338C11.3447 24.338 12.7527 23.8907 13.882 22.996V26.186C12.6353 26.934 11.176 27.308 9.504 27.308ZM21.7747 27.286C20.0587 27.286 18.614 26.758 17.4407 25.702C16.2673 24.646 15.6807 23.2453 15.6807 21.5C15.6807 19.872 16.2087 18.508 17.2647 17.408C18.3207 16.2933 19.6993 15.736 21.4007 15.736C22.9847 15.736 24.2533 16.3007 25.2067 17.43C26.16 18.5593 26.6367 19.9307 26.6367 21.544V22.358H18.7607C18.922 23.0913 19.3253 23.656 19.9707 24.052C20.6307 24.448 21.452 24.646 22.4347 24.646C23.652 24.646 24.8253 24.3233 25.9547 23.678V26.164C24.972 26.912 23.5787 27.286 21.7747 27.286ZM18.7607 20.378H23.5787C23.5493 19.7473 23.322 19.2267 22.8967 18.816C22.486 18.3907 21.9433 18.178 21.2687 18.178C20.5793 18.178 20.0073 18.3833 19.5527 18.794C19.098 19.19 18.834 19.718 18.7607 20.378ZM31.944 27.286C31.0347 27.286 30.316 27.044 29.788 26.56C29.2747 26.0613 29.018 25.2913 29.018 24.25V11.6H32.12V23.436C32.12 24.1693 32.45 24.536 33.11 24.536C33.418 24.536 33.682 24.47 33.902 24.338V26.89C33.374 27.154 32.7213 27.286 31.944 27.286ZM39.2779 27H36.1759V16.022H39.2779V27ZM35.8679 13.118C35.8679 12.59 36.0439 12.15 36.3959 11.798C36.7626 11.4313 37.2026 11.248 37.7159 11.248C38.2292 11.248 38.6619 11.4313 39.0139 11.798C39.3806 12.15 39.5639 12.59 39.5639 13.118C39.5639 13.6313 39.3806 14.0713 39.0139 14.438C38.6619 14.79 38.2292 14.966 37.7159 14.966C37.2026 14.966 36.7626 14.79 36.3959 14.438C36.0439 14.0713 35.8679 13.6313 35.8679 13.118ZM45.5692 20.004V27H42.4672V16.022H45.5692V17.342C46.5519 16.2713 47.7766 15.736 49.2432 15.736C50.5046 15.736 51.4872 16.1393 52.1912 16.946C52.8952 17.738 53.2472 18.8453 53.2472 20.268V27H50.1452V20.906C50.1452 20.114 49.9472 19.5273 49.5512 19.146C49.1699 18.7647 48.6712 18.574 48.0552 18.574C47.5859 18.574 47.1166 18.7133 46.6472 18.992C46.1926 19.256 45.8332 19.5933 45.5692 20.004ZM63.9208 27.308C61.5742 27.308 59.6235 26.56 58.0688 25.064C56.4995 23.5387 55.7148 21.6173 55.7148 19.3C55.7148 16.9533 56.4995 15.032 58.0688 13.536C59.6235 12.04 61.6108 11.292 64.0308 11.292C65.8055 11.292 67.3455 11.6807 68.6508 12.458V15.582C67.2282 14.702 65.7615 14.262 64.2508 14.262C62.6815 14.262 61.4055 14.7313 60.4228 15.67C59.4402 16.594 58.9488 17.826 58.9488 19.366C58.9488 20.8913 59.4255 22.1087 60.3788 23.018C61.3322 23.9273 62.5128 24.382 63.9208 24.382C65.2702 24.382 66.3042 24.0447 67.0228 23.37V18.068H70.1908V24.866C69.5308 25.57 68.6508 26.1493 67.5508 26.604C66.4068 27.0733 65.1968 27.308 63.9208 27.308ZM76.1881 27H73.0861V16.022H76.1881V27ZM72.7781 13.118C72.7781 12.59 72.9541 12.15 73.3061 11.798C73.6727 11.4313 74.1127 11.248 74.6261 11.248C75.1394 11.248 75.5721 11.4313 75.9241 11.798C76.2907 12.15 76.4741 12.59 76.4741 13.118C76.4741 13.6313 76.2907 14.0713 75.9241 14.438C75.5721 14.79 75.1394 14.966 74.6261 14.966C74.1127 14.966 73.6727 14.79 73.3061 14.438C72.9541 14.0713 72.7781 13.6313 72.7781 13.118ZM83.8214 27.286C82.34 27.286 81.1007 26.736 80.1034 25.636C79.1354 24.5213 78.6514 23.1427 78.6514 21.5C78.6514 19.872 79.1354 18.508 80.1034 17.408C81.086 16.2933 82.3254 15.736 83.8214 15.736C85.3614 15.736 86.564 16.2787 87.4294 17.364V11.6H90.5314V27H87.4294V25.658C86.608 26.7433 85.4054 27.286 83.8214 27.286ZM84.7014 24.58C85.288 24.58 85.8234 24.426 86.3074 24.118C86.7914 23.81 87.1654 23.414 87.4294 22.93V20.07C87.1654 19.586 86.7914 19.1973 86.3074 18.904C85.8234 18.596 85.288 18.442 84.7014 18.442C83.8214 18.442 83.11 18.7353 82.5674 19.322C82.01 19.9233 81.7314 20.6493 81.7314 21.5C81.7314 22.3653 82.01 23.0987 82.5674 23.7C83.11 24.2867 83.8214 24.58 84.7014 24.58ZM96.6591 27H93.5571V16.022H96.6591V17.87C96.9964 17.2833 97.5097 16.7847 98.1991 16.374C98.9177 15.9487 99.6804 15.736 100.487 15.736C100.663 15.736 100.78 15.7433 100.839 15.758V18.794C100.546 18.7207 100.223 18.684 99.8711 18.684C99.1524 18.684 98.4924 18.8747 97.8911 19.256C97.3044 19.6227 96.8937 20.07 96.6591 20.598V27ZM105.192 21.5C105.192 22.38 105.478 23.1133 106.05 23.7C106.622 24.2867 107.348 24.58 108.228 24.58C109.108 24.58 109.834 24.2867 110.406 23.7C110.978 23.0987 111.264 22.3653 111.264 21.5C111.264 20.62 110.978 19.894 110.406 19.322C109.834 18.7353 109.108 18.442 108.228 18.442C107.348 18.442 106.622 18.7353 106.05 19.322C105.478 19.894 105.192 20.62 105.192 21.5ZM102.134 21.5C102.134 19.872 102.706 18.508 103.85 17.408C104.979 16.2933 106.438 15.736 108.228 15.736C110.017 15.736 111.476 16.2933 112.606 17.408C113.75 18.5227 114.322 19.8867 114.322 21.5C114.322 23.1427 113.75 24.5213 112.606 25.636C111.462 26.736 110.002 27.286 108.228 27.286C106.453 27.286 104.994 26.736 103.85 25.636C102.706 24.5213 102.134 23.1427 102.134 21.5ZM119.954 27H116.786V11.6H119.932L124.398 17.98L128.864 11.6H131.988V27H128.864V16.462L125.322 21.412H123.562L119.954 16.462V27ZM145.665 24.602C145.929 24.602 146.142 24.558 146.303 24.47V26.736C145.907 27.044 145.35 27.198 144.631 27.198C143.385 27.198 142.556 26.7287 142.145 25.79C141.177 26.7873 139.916 27.286 138.361 27.286C137.159 27.286 136.183 26.9487 135.435 26.274C134.687 25.5993 134.313 24.712 134.313 23.612C134.313 22.4387 134.739 21.544 135.589 20.928C136.44 20.312 137.459 20.004 138.647 20.004C139.894 20.004 140.95 20.2313 141.815 20.686V20.356C141.815 18.9773 140.847 18.288 138.911 18.288C137.723 18.288 136.616 18.596 135.589 19.212V16.616C136.704 16.0293 138.061 15.736 139.659 15.736C141.243 15.736 142.505 16.1173 143.443 16.88C144.411 17.6427 144.895 18.6987 144.895 20.048V23.766C144.895 24.3233 145.152 24.602 145.665 24.602ZM141.815 23.766V22.666C141.17 22.2407 140.407 22.028 139.527 22.028C138.867 22.028 138.339 22.1527 137.943 22.402C137.562 22.6513 137.371 23.0033 137.371 23.458C137.371 23.9273 137.547 24.2867 137.899 24.536C138.251 24.7707 138.728 24.888 139.329 24.888C140.415 24.888 141.243 24.514 141.815 23.766ZM152.498 27.286C150.547 27.286 149.007 26.9413 147.878 26.252V23.502C148.406 23.854 149.073 24.1547 149.88 24.404C150.701 24.6387 151.53 24.756 152.366 24.756C153.627 24.756 154.258 24.448 154.258 23.832C154.258 23.5387 154.074 23.3113 153.708 23.15C153.517 23.062 153.326 22.996 153.136 22.952L152.322 22.754C152.204 22.7247 152.043 22.688 151.838 22.644C151.647 22.5853 151.515 22.5413 151.442 22.512C150.136 22.16 149.212 21.742 148.67 21.258C148.142 20.7593 147.878 20.0407 147.878 19.102C147.878 18.0607 148.303 17.2393 149.154 16.638C150.019 16.0367 151.207 15.736 152.718 15.736C154.39 15.736 155.761 16.0733 156.832 16.748V19.388C155.526 18.6253 154.199 18.244 152.85 18.244C151.676 18.244 151.09 18.5373 151.09 19.124C151.09 19.2413 151.119 19.3513 151.178 19.454C151.251 19.542 151.317 19.608 151.376 19.652C151.449 19.696 151.559 19.762 151.706 19.85C151.794 19.8793 151.955 19.9307 152.19 20.004C152.424 20.0627 152.578 20.1067 152.652 20.136L153.818 20.378C155.035 20.6567 155.937 21.0747 156.524 21.632C157.11 22.1747 157.404 22.9153 157.404 23.854C157.404 24.8807 156.956 25.7093 156.062 26.34C155.167 26.9707 153.979 27.286 152.498 27.286ZM162.809 20.004V27H159.707V11.6H162.809V17.364C163.807 16.2787 165.031 15.736 166.483 15.736C167.745 15.736 168.727 16.1393 169.431 16.946C170.135 17.738 170.487 18.8453 170.487 20.268V27H167.385V20.906C167.385 20.114 167.187 19.5273 166.791 19.146C166.41 18.7647 165.911 18.574 165.295 18.574C164.826 18.574 164.357 18.7133 163.887 18.992C163.433 19.256 163.073 19.5933 162.809 20.004ZM185.033 27H173.483V11.6H184.791V14.438H176.651V17.408H183.207V20.202H176.651V24.162H185.033V27ZM186.609 16.022H190.085L192.285 19.102L194.507 16.022H197.939L194.089 21.258L198.269 27H194.793L192.241 23.48L189.667 27H186.235L190.437 21.28L186.609 16.022ZM206.873 15.736C208.369 15.736 209.601 16.2933 210.569 17.408C211.551 18.4933 212.043 19.8647 212.043 21.522C212.043 23.15 211.551 24.5213 210.569 25.636C209.601 26.736 208.369 27.286 206.873 27.286C205.333 27.286 204.13 26.7433 203.265 25.658V31.4H200.163V16.022H203.265V17.364C204.086 16.2787 205.289 15.736 206.873 15.736ZM205.993 18.442C205.406 18.442 204.871 18.596 204.387 18.904C203.903 19.212 203.529 19.608 203.265 20.092V22.952C203.529 23.436 203.903 23.832 204.387 24.14C204.871 24.4333 205.406 24.58 205.993 24.58C206.873 24.58 207.584 24.2867 208.127 23.7C208.684 23.0987 208.963 22.3727 208.963 21.522C208.963 20.6567 208.684 19.9233 208.127 19.322C207.584 18.7353 206.873 18.442 205.993 18.442ZM216.653 21.5C216.653 22.38 216.939 23.1133 217.511 23.7C218.083 24.2867 218.809 24.58 219.689 24.58C220.569 24.58 221.295 24.2867 221.867 23.7C222.439 23.0987 222.725 22.3653 222.725 21.5C222.725 20.62 222.439 19.894 221.867 19.322C221.295 18.7353 220.569 18.442 219.689 18.442C218.809 18.442 218.083 18.7353 217.511 19.322C216.939 19.894 216.653 20.62 216.653 21.5ZM213.595 21.5C213.595 19.872 214.167 18.508 215.311 17.408C216.44 16.2933 217.899 15.736 219.689 15.736C221.478 15.736 222.937 16.2933 224.067 17.408C225.211 18.5227 225.783 19.8867 225.783 21.5C225.783 23.1427 225.211 24.5213 224.067 25.636C222.923 26.736 221.463 27.286 219.689 27.286C217.914 27.286 216.455 26.736 215.311 25.636C214.167 24.5213 213.595 23.1427 213.595 21.5ZM231.173 27H228.071V16.022H231.173V17.87C231.51 17.2833 232.023 16.7847 232.713 16.374C233.431 15.9487 234.194 15.736 235.001 15.736C235.177 15.736 235.294 15.7433 235.353 15.758V18.794C235.059 18.7207 234.737 18.684 234.385 18.684C233.666 18.684 233.006 18.8747 232.405 19.256C231.818 19.6227 231.407 20.07 231.173 20.598V27ZM239.073 23.59V18.618H236.917V16.022H239.073V13.008H242.175V16.022H245.299V18.618H242.175V22.974C242.175 23.5167 242.293 23.9127 242.527 24.162C242.762 24.3967 243.143 24.514 243.671 24.514C244.214 24.514 244.749 24.382 245.277 24.118V26.692C244.632 27.088 243.759 27.286 242.659 27.286C240.269 27.286 239.073 26.054 239.073 23.59Z" fill="#4CA89D"/>
</svg>
