<svg width="201" height="31" viewBox="0 0 201 31" fill="none" xmlns="http://www.w3.org/2000/svg">
<g clip-path="url(#clip0_6_20)">
<rect width="201" height="31" fill="white"/>
<path d="M10.344 17.312C7.832 17.312 5.72 16.496 4.008 14.864C2.328 13.216 1.488 11.128 1.488 8.6C1.488 6.072 2.328 3.992 4.008 2.36C5.672 0.711999 7.784 -0.112001 10.344 -0.112001C12.056 -0.112001 13.576 0.263999 14.904 1.016V3.68C13.544 2.8 12.032 2.36 10.368 2.36C8.608 2.36 7.136 2.952 5.952 4.136C4.784 5.304 4.2 6.792 4.2 8.6C4.2 10.408 4.792 11.904 5.976 13.088C7.16 14.256 8.656 14.84 10.464 14.84C12.384 14.84 13.984 14.328 15.264 13.304V15.968C13.856 16.864 12.216 17.312 10.344 17.312ZM17.4143 11.096C17.4143 9.32 17.9743 7.848 19.0943 6.68C20.2303 5.496 21.6863 4.904 23.4622 4.904C24.6783 4.904 25.7103 5.224 26.5583 5.864C28.2223 7.048 29.0543 8.824 29.0543 11.192V11.864H20.0303C20.1903 12.856 20.6623 13.632 21.4463 14.192C22.2463 14.752 23.2543 15.032 24.4703 15.032C25.8143 15.032 27.0783 14.68 28.2623 13.976V16.16C27.1743 16.928 25.7263 17.312 23.9183 17.312C22.1103 17.312 20.5663 16.736 19.2863 15.584C18.0383 14.432 17.4143 12.936 17.4143 11.096ZM20.0543 9.896H26.4383C26.4063 9.16 26.1263 8.512 25.5983 7.952C25.0543 7.376 24.3023 7.088 23.3423 7.088C22.4303 7.088 21.6703 7.36 21.0623 7.904C20.4703 8.432 20.1343 9.096 20.0543 9.896ZM34.9406 17.312C34.0286 17.312 33.3086 17.064 32.7806 16.568C32.2526 16.056 31.9886 15.272 31.9886 14.216V0.199999H34.5806V13.496C34.5806 14.456 35.0126 14.936 35.8766 14.936C36.2606 14.936 36.5886 14.856 36.8606 14.696V16.928C36.3646 17.184 35.7246 17.312 34.9406 17.312ZM42.1326 17H39.5406V5.216H42.1326V17ZM40.8366 3.104C40.3726 3.104 39.9806 2.952 39.6606 2.648C39.3566 2.328 39.2046 1.936 39.2046 1.472C39.2046 1.008 39.3566 0.615999 39.6606 0.295999C39.9806 -0.0240006 40.3726 -0.184 40.8366 -0.184C41.2846 -0.184 41.6606 -0.0240006 41.9646 0.295999C42.2846 0.615999 42.4446 1.008 42.4446 1.472C42.4446 1.936 42.2846 2.328 41.9646 2.648C41.6606 2.952 41.2846 3.104 40.8366 3.104ZM48.6431 9.248V17H46.0511V5.216H48.6431V6.776C49.7951 5.528 51.2351 4.904 52.9631 4.904C54.3551 4.904 55.4271 5.336 56.1791 6.2C56.9471 7.064 57.3311 8.264 57.3311 9.8V17H54.7391V10.376C54.7391 8.344 53.8191 7.328 51.9791 7.328C51.3391 7.328 50.7071 7.512 50.0831 7.88C49.4591 8.232 48.9791 8.688 48.6431 9.248ZM63.3853 9.248V17H60.7933V5.216H63.3853V6.776C64.5373 5.528 65.9773 4.904 67.7053 4.904C69.0973 4.904 70.1693 5.336 70.9213 6.2C71.6893 7.064 72.0733 8.264 72.0733 9.8V17H69.4813V10.376C69.4813 8.344 68.5613 7.328 66.7213 7.328C66.0813 7.328 65.4493 7.512 64.8253 7.88C64.2013 8.232 63.7213 8.688 63.3853 9.248ZM83.9115 17.312C81.4315 17.312 79.3515 16.496 77.6715 14.864C76.0075 13.2 75.1755 11.112 75.1755 8.6C75.1755 6.072 76.0155 3.992 77.6955 2.36C79.3595 0.711999 81.4635 -0.112001 84.0075 -0.112001C86.0555 -0.112001 87.7835 0.367999 89.1915 1.328V3.944C87.6555 2.888 85.9835 2.36 84.1755 2.36C82.3355 2.36 80.8315 2.944 79.6635 4.112C78.4795 5.296 77.8875 6.8 77.8875 8.624C77.8875 10.48 78.4635 11.984 79.6155 13.136C80.7995 14.272 82.2315 14.84 83.9115 14.84C85.6235 14.84 86.9755 14.368 87.9675 13.424V7.304H90.6075V14.504C89.9035 15.336 88.9515 16.016 87.7515 16.544C86.5675 17.056 85.2875 17.312 83.9115 17.312ZM96.9294 17H94.3374V5.216H96.9294V17ZM95.6334 3.104C95.1694 3.104 94.7774 2.952 94.4574 2.648C94.1534 2.328 94.0014 1.936 94.0014 1.472C94.0014 1.008 94.1534 0.615999 94.4574 0.295999C94.7774 -0.0240006 95.1694 -0.184 95.6334 -0.184C96.0814 -0.184 96.4574 -0.0240006 96.7614 0.295999C97.0814 0.615999 97.2414 1.008 97.2414 1.472C97.2414 1.936 97.0814 2.328 96.7614 2.648C96.4574 2.952 96.0814 3.104 95.6334 3.104ZM105.72 17.312C104.056 17.312 102.688 16.712 101.616 15.512C100.544 14.328 100.008 12.856 100.008 11.096C100.008 9.352 100.544 7.888 101.616 6.704C102.688 5.504 104.056 4.904 105.72 4.904C107.528 4.904 108.928 5.544 109.92 6.824V0.199999H112.512V17H109.92V15.392C108.928 16.672 107.528 17.312 105.72 17.312ZM106.416 15.032C107.168 15.032 107.856 14.84 108.48 14.456C109.104 14.056 109.584 13.544 109.92 12.92V9.272C109.584 8.664 109.096 8.168 108.456 7.784C107.832 7.384 107.152 7.184 106.416 7.184C105.328 7.184 104.424 7.568 103.704 8.336C102.984 9.088 102.624 10.008 102.624 11.096C102.624 12.2 102.984 13.136 103.704 13.904C104.424 14.656 105.328 15.032 106.416 15.032ZM118.792 17H116.2V5.216H118.792V7.256C119.192 6.568 119.792 6.008 120.592 5.576C121.392 5.128 122.24 4.904 123.136 4.904C123.248 4.904 123.328 4.912 123.376 4.928V7.52C123.088 7.488 122.848 7.472 122.656 7.472C121.776 7.472 120.984 7.696 120.28 8.144C119.576 8.592 119.08 9.136 118.792 9.776V17ZM131.379 15.032C132.467 15.032 133.387 14.656 134.139 13.904C134.875 13.168 135.243 12.232 135.243 11.096C135.243 9.976 134.875 9.048 134.139 8.312C133.387 7.56 132.467 7.184 131.379 7.184C130.275 7.184 129.347 7.56 128.595 8.312C127.859 9.048 127.491 9.976 127.491 11.096C127.491 12.232 127.859 13.168 128.595 13.904C129.347 14.656 130.275 15.032 131.379 15.032ZM131.379 17.312C129.491 17.312 127.939 16.712 126.723 15.512C125.507 14.312 124.899 12.84 124.899 11.096C124.899 9.368 125.507 7.904 126.723 6.704C127.939 5.504 129.491 4.904 131.379 4.904C133.235 4.904 134.779 5.504 136.011 6.704C137.227 7.904 137.835 9.368 137.835 11.096C137.835 12.824 137.227 14.296 136.011 15.512C134.779 16.712 133.235 17.312 131.379 17.312ZM143.284 17H140.692V5.216H143.284V6.752C144.18 5.52 145.476 4.904 147.172 4.904C148.084 4.904 148.868 5.096 149.524 5.48C150.18 5.864 150.636 6.376 150.892 7.016C151.324 6.376 151.916 5.864 152.668 5.48C153.436 5.096 154.276 4.904 155.188 4.904C156.5 4.904 157.524 5.312 158.26 6.128C158.996 6.944 159.364 8.112 159.364 9.632V17H156.772V10.232C156.772 8.296 155.972 7.328 154.372 7.328C153.748 7.328 153.148 7.52 152.572 7.904C152.012 8.272 151.604 8.736 151.348 9.296V17H148.756V10.232C148.756 8.296 147.948 7.328 146.332 7.328C145.724 7.328 145.132 7.512 144.556 7.88C143.996 8.232 143.572 8.68 143.284 9.224V17ZM173.881 14.984C174.137 14.984 174.369 14.928 174.577 14.816V16.784C174.225 17.04 173.721 17.168 173.065 17.168C171.721 17.168 170.897 16.608 170.593 15.488C169.521 16.704 168.073 17.312 166.249 17.312C164.985 17.312 163.929 16.96 163.081 16.256C162.249 15.568 161.833 14.6 161.833 13.352C161.833 12.104 162.289 11.144 163.201 10.472C164.097 9.784 165.217 9.44 166.561 9.44C167.985 9.44 169.241 9.744 170.329 10.352V9.704C170.329 7.992 169.177 7.136 166.873 7.136C165.529 7.136 164.289 7.488 163.153 8.192V5.912C164.321 5.24 165.753 4.904 167.449 4.904C169.113 4.904 170.433 5.304 171.409 6.104C172.401 6.888 172.897 7.992 172.897 9.416V13.808C172.897 14.176 172.985 14.464 173.161 14.672C173.353 14.88 173.593 14.984 173.881 14.984ZM170.329 13.664V12.224C169.337 11.664 168.289 11.384 167.185 11.384C166.321 11.384 165.641 11.544 165.145 11.864C164.665 12.184 164.425 12.632 164.425 13.208C164.425 13.816 164.649 14.28 165.097 14.6C165.561 14.92 166.185 15.08 166.969 15.08C167.609 15.08 168.233 14.952 168.841 14.696C169.449 14.424 169.945 14.08 170.329 13.664ZM181.337 17.312C179.241 17.312 177.601 16.912 176.417 16.112V13.664C177.793 14.608 179.393 15.08 181.217 15.08C182.033 15.08 182.665 14.96 183.113 14.72C183.577 14.464 183.809 14.12 183.809 13.688C183.809 13.304 183.569 12.992 183.089 12.752C182.881 12.656 182.505 12.536 181.961 12.392L180.497 12.032C179.105 11.68 178.097 11.232 177.473 10.688C176.849 10.128 176.537 9.352 176.537 8.36C176.537 7.288 176.977 6.448 177.857 5.84C178.737 5.216 179.961 4.904 181.529 4.904C183.337 4.904 184.785 5.256 185.873 5.96V8.336C184.449 7.536 183.033 7.136 181.625 7.136C180.841 7.136 180.241 7.256 179.825 7.496C179.409 7.72 179.201 8.032 179.201 8.432C179.201 8.8 179.449 9.112 179.945 9.368C180.009 9.4 180.385 9.52 181.073 9.728L182.441 10.016C185.129 10.608 186.473 11.848 186.473 13.736C186.473 14.808 186.001 15.672 185.057 16.328C184.113 16.984 182.873 17.312 181.337 17.312ZM192.01 9.248V17H189.418V0.199999H192.01V6.776C193.162 5.528 194.602 4.904 196.33 4.904C197.722 4.904 198.794 5.336 199.546 6.2C200.314 7.064 200.698 8.264 200.698 9.8V17H198.106V10.376C198.106 9.24 197.834 8.448 197.29 8C196.746 7.552 196.098 7.328 195.346 7.328C194.706 7.328 194.074 7.512 193.45 7.88C192.826 8.232 192.346 8.688 192.01 9.248ZM7.176 29H1.044V20.6H7.02V21.812H2.364V23.912H6.156V25.124H2.364V27.788H7.176V29ZM8.2275 23.108H9.7275L11.1195 24.932L12.5235 23.108H13.9995L11.8635 25.892L14.2395 29H12.7395L11.0955 26.852L9.4515 29H7.9875L10.3635 25.916L8.2275 23.108ZM18.8278 22.952C19.6598 22.952 20.3438 23.252 20.8798 23.852C21.4158 24.444 21.6838 25.18 21.6838 26.06C21.6838 26.932 21.4158 27.664 20.8798 28.256C20.3438 28.856 19.6598 29.156 18.8278 29.156C17.9238 29.156 17.2238 28.836 16.7278 28.196V31.4H15.4318V23.108H16.7278V23.912C17.2238 23.272 17.9238 22.952 18.8278 22.952ZM18.4798 24.092C18.1038 24.092 17.7598 24.192 17.4478 24.392C17.1358 24.584 16.8958 24.836 16.7278 25.148V26.972C16.8958 27.276 17.1358 27.528 17.4478 27.728C17.7678 27.92 18.1118 28.016 18.4798 28.016C19.0238 28.016 19.4758 27.828 19.8358 27.452C20.1958 27.068 20.3758 26.604 20.3758 26.06C20.3758 25.508 20.1958 25.044 19.8358 24.668C19.4758 24.284 19.0238 24.092 18.4798 24.092ZM25.9276 28.016C26.4716 28.016 26.9316 27.828 27.3076 27.452C27.6756 27.084 27.8596 26.616 27.8596 26.048C27.8596 25.488 27.6756 25.024 27.3076 24.656C26.9316 24.28 26.4716 24.092 25.9276 24.092C25.3756 24.092 24.9116 24.28 24.5356 24.656C24.1676 25.024 23.9836 25.488 23.9836 26.048C23.9836 26.616 24.1676 27.084 24.5356 27.452C24.9116 27.828 25.3756 28.016 25.9276 28.016ZM25.9276 29.156C24.9836 29.156 24.2076 28.856 23.5996 28.256C22.9916 27.656 22.6876 26.92 22.6876 26.048C22.6876 25.184 22.9916 24.452 23.5996 23.852C24.2076 23.252 24.9836 22.952 25.9276 22.952C26.8556 22.952 27.6276 23.252 28.2436 23.852C28.8516 24.452 29.1556 25.184 29.1556 26.048C29.1556 26.912 28.8516 27.648 28.2436 28.256C27.6276 28.856 26.8556 29.156 25.9276 29.156ZM31.8802 29H30.5842V23.108H31.8802V24.128C32.0802 23.784 32.3802 23.504 32.7802 23.288C33.1802 23.064 33.6042 22.952 34.0522 22.952C34.1082 22.952 34.1482 22.956 34.1722 22.964V24.26C34.0282 24.244 33.9082 24.236 33.8122 24.236C33.3722 24.236 32.9762 24.348 32.6242 24.572C32.2722 24.796 32.0242 25.068 31.8802 25.388V29ZM36.329 27.392V24.248H35.069V23.108H36.329V21.392H37.625V23.108H39.485V24.248H37.625V27.02C37.625 27.348 37.701 27.588 37.853 27.74C38.005 27.892 38.237 27.968 38.549 27.968C38.861 27.968 39.157 27.896 39.437 27.752V28.868C39.157 29.06 38.721 29.156 38.129 29.156C37.569 29.156 37.129 29.004 36.809 28.7C36.489 28.396 36.329 27.96 36.329 27.392Z" fill="#4CA89D"/>
</g>
<defs>
<clipPath id="clip0_6_20">
<rect width="201" height="31" fill="white"/>
</clipPath>
</defs>
</svg>
