<svg width="474" height="106" viewBox="0 0 474 106" fill="none" xmlns="http://www.w3.org/2000/svg">
<path d="M0 53V105.667H8H16L16.1333 80.6V55.6666L40.5333 80.6L64.8 105.667H76H87.3333L60.2667 78.6C45.4667 63.8 33.3333 51 33.3333 50.3333C33.3333 49.6666 44.2667 38.0666 57.6 24.7333L82 0.333287H71.3333H60.6667L38.6667 22.3333L16.6667 44.3333L16.2667 22.3333L16 0.333287H8H0V53Z" fill="#0074B5"/>
<path d="M102.267 11.9333C105.067 18.4667 115.067 41.9333 124.667 64.3333L142.133 105H151.867H161.467L183.467 53.6667C195.467 25.4 205.333 1.93333 205.333 1.39999C205.333 0.733328 201.6 0.333328 196.933 0.333328H188.533L170.667 43C160.8 66.4667 152.4 85.6667 151.867 85.6667C151.2 85.6667 130.533 37.2667 118.933 8.59999L115.6 0.333328H106.533H97.4668L102.267 11.9333Z" fill="#0074B5"/>
<path d="M225.334 53V105.667H234.001H242.667V53V0.333287H234.001H225.334V53Z" fill="#0074B5"/>
<path d="M270.666 53V105.667H278.666H286.666V67.6666C286.666 46.7333 287.066 29.6666 287.733 29.8C288.266 29.8 301.866 46.8666 317.999 67.6666L347.333 105.533H355.733L363.999 105.667V53V0.333287H355.999H347.999L347.733 39.8L347.333 79.2666L324.666 50.3333C312.266 34.3333 298.399 16.6 293.999 10.8666L285.999 0.333287H278.399H270.666V53Z" fill="#0074B5"/>
<path d="M384 7.66662V15H402H420V60.3333V105.667H428H436V60.3333V15H454.667H473.467L473.2 7.66662L472.933 0.333287H428.4H384V7.66662Z" fill="#0074B5"/>
</svg>
