<svg width="787" height="127" viewBox="0 0 787 127" fill="none" xmlns="http://www.w3.org/2000/svg">
<path d="M32.42 100C31.3933 100 30.5533 99.6733 29.9 99.02C29.2467 98.3667 28.92 97.5267 28.92 96.5V21.46H3.44C2.50667 21.46 1.71333 21.1333 1.06 20.48C0.406667 19.8267 0.0800002 19.0333 0.0800002 18.1V5.5C0.0800002 4.47333 0.406667 3.63333 1.06 2.98C1.71333 2.32666 2.50667 1.99999 3.44 1.99999H76.8C77.8267 1.99999 78.6667 2.32666 79.32 2.98C79.9733 3.63333 80.3 4.47333 80.3 5.5V18.1C80.3 19.0333 79.9733 19.8267 79.32 20.48C78.6667 21.1333 77.8267 21.46 76.8 21.46H51.46V96.5C51.46 97.5267 51.1333 98.3667 50.48 99.02C49.8267 99.6733 48.9867 100 47.96 100H32.42ZM131.466 101.4C122.692 101.4 115.179 99.9533 108.926 97.06C102.766 94.0733 97.959 89.78 94.5056 84.18C91.1456 78.4867 89.3256 71.6267 89.0456 63.6C88.9523 59.5867 88.9056 55.2933 88.9056 50.72C88.9056 46.1467 88.9523 41.8067 89.0456 37.7C89.3256 29.86 91.1456 23.1867 94.5056 17.68C97.959 12.1733 102.812 7.97333 109.066 5.08C115.412 2.09333 122.879 0.599995 131.466 0.599995C138.372 0.599995 144.439 1.48666 149.666 3.25999C154.892 5.03333 159.279 7.36666 162.826 10.26C166.372 13.06 169.079 16.14 170.946 19.5C172.812 22.86 173.792 26.08 173.886 29.16C173.886 30 173.606 30.7467 173.046 31.4C172.486 31.96 171.739 32.24 170.806 32.24H153.446C152.512 32.24 151.766 32.0533 151.206 31.68C150.739 31.3067 150.319 30.7467 149.946 30C149.292 28.32 148.219 26.64 146.726 24.96C145.326 23.1867 143.412 21.6933 140.986 20.48C138.559 19.2667 135.386 18.66 131.466 18.66C125.586 18.66 120.919 20.2 117.466 23.28C114.106 26.36 112.286 31.4 112.006 38.4C111.726 46.4267 111.726 54.5933 112.006 62.9C112.286 70.18 114.152 75.4067 117.606 78.58C121.152 81.7533 125.866 83.34 131.746 83.34C135.572 83.34 138.979 82.6867 141.966 81.38C145.046 79.98 147.472 77.8333 149.246 74.94C151.019 72.0467 151.906 68.36 151.906 63.88V60.38H136.646C135.712 60.38 134.919 60.0533 134.266 59.4C133.612 58.6533 133.286 57.8133 133.286 56.88V47.92C133.286 46.8933 133.612 46.0533 134.266 45.4C134.919 44.7467 135.712 44.42 136.646 44.42H170.946C171.972 44.42 172.812 44.7467 173.466 45.4C174.119 46.0533 174.446 46.8933 174.446 47.92V63.18C174.446 71.2067 172.672 78.0667 169.126 83.76C165.672 89.4533 160.679 93.84 154.146 96.92C147.706 99.9067 140.146 101.4 131.466 101.4ZM195.02 100C194.087 100 193.247 99.6733 192.5 99.02C191.847 98.3667 191.52 97.5267 191.52 96.5V5.5C191.52 4.47333 191.847 3.63333 192.5 2.98C193.247 2.32666 194.087 1.99999 195.02 1.99999H208.04C209.44 1.99999 210.467 2.37333 211.12 3.12C211.867 3.86666 212.38 4.42666 212.66 4.8L238.42 52.26L264.46 4.8C264.647 4.42666 265.067 3.86666 265.72 3.12C266.467 2.37333 267.54 1.99999 268.94 1.99999H281.96C282.987 1.99999 283.827 2.32666 284.48 2.98C285.133 3.63333 285.46 4.47333 285.46 5.5V96.5C285.46 97.5267 285.133 98.3667 284.48 99.02C283.827 99.6733 282.987 100 281.96 100H267.68C266.747 100 265.953 99.6733 265.3 99.02C264.647 98.3667 264.32 97.5267 264.32 96.5V39.94L246.54 73.26C246.073 74.1 245.467 74.8467 244.72 75.5C243.973 76.1533 242.993 76.48 241.78 76.48H235.2C233.987 76.48 233.007 76.1533 232.26 75.5C231.513 74.8467 230.907 74.1 230.44 73.26L212.66 39.94V96.5C212.66 97.5267 212.333 98.3667 211.68 99.02C211.027 99.6733 210.233 100 209.3 100H195.02ZM340.626 100C339.599 100 338.759 99.6733 338.106 99.02C337.452 98.3667 337.126 97.5267 337.126 96.5V5.5C337.126 4.47333 337.452 3.63333 338.106 2.98C338.759 2.32666 339.599 1.99999 340.626 1.99999H404.046C405.072 1.99999 405.912 2.32666 406.566 2.98C407.219 3.63333 407.546 4.47333 407.546 5.5V16.7C407.546 17.6333 407.219 18.4267 406.566 19.08C405.912 19.7333 405.072 20.06 404.046 20.06H358.686V42.04H400.966C401.992 42.04 402.832 42.3667 403.486 43.02C404.139 43.6733 404.466 44.5133 404.466 45.54V55.9C404.466 56.8333 404.139 57.6267 403.486 58.28C402.832 58.9333 401.992 59.26 400.966 59.26H358.686V81.94H405.166C406.192 81.94 407.032 82.2667 407.686 82.92C408.339 83.5733 408.666 84.4133 408.666 85.44V96.5C408.666 97.5267 408.339 98.3667 407.686 99.02C407.032 99.6733 406.192 100 405.166 100H340.626ZM420.689 100C419.849 100 419.103 99.72 418.449 99.16C417.889 98.5067 417.609 97.76 417.609 96.92C417.609 96.64 417.656 96.3133 417.749 95.94C417.936 95.4733 418.169 95.0533 418.449 94.68L442.109 62.62L420.409 32.52C420.129 32.1467 419.896 31.7733 419.709 31.4C419.616 31.0267 419.569 30.6533 419.569 30.28C419.569 29.44 419.849 28.74 420.409 28.18C421.063 27.5267 421.809 27.2 422.649 27.2H437.209C438.329 27.2 439.169 27.48 439.729 28.04C440.383 28.6 440.849 29.1133 441.129 29.58L455.549 49.18L469.969 29.72C470.343 29.2533 470.809 28.74 471.369 28.18C471.929 27.5267 472.816 27.2 474.029 27.2H487.889C488.729 27.2 489.429 27.5267 489.989 28.18C490.643 28.74 490.969 29.44 490.969 30.28C490.969 30.6533 490.923 31.0267 490.829 31.4C490.736 31.7733 490.503 32.1467 490.129 32.52L468.009 62.76L491.949 94.68C492.229 95.0533 492.416 95.4267 492.509 95.8C492.696 96.1733 492.789 96.5467 492.789 96.92C492.789 97.76 492.463 98.5067 491.809 99.16C491.249 99.72 490.549 100 489.709 100H474.449C473.423 100 472.629 99.7667 472.069 99.3C471.509 98.74 471.043 98.2267 470.669 97.76L455.129 77.04L439.309 97.76C439.029 98.1333 438.609 98.6 438.049 99.16C437.489 99.72 436.649 100 435.529 100H420.689ZM507.797 126.6C506.77 126.6 505.93 126.273 505.277 125.62C504.623 124.967 504.297 124.127 504.297 123.1V30.7C504.297 29.6733 504.623 28.8333 505.277 28.18C505.93 27.5267 506.77 27.2 507.797 27.2H521.097C522.123 27.2 522.963 27.5267 523.617 28.18C524.27 28.8333 524.597 29.6733 524.597 30.7V36.02C526.837 33.0333 529.73 30.6067 533.277 28.74C536.823 26.78 541.257 25.8 546.577 25.8C551.43 25.8 555.63 26.5933 559.177 28.18C562.817 29.6733 565.85 31.8667 568.277 34.76C570.797 37.56 572.71 40.9667 574.017 44.98C575.417 48.9933 576.21 53.52 576.397 58.56C576.49 60.3333 576.537 62.0133 576.537 63.6C576.537 65.1867 576.49 66.9133 576.397 68.78C576.303 73.54 575.557 77.9267 574.157 81.94C572.85 85.9533 570.937 89.4067 568.417 92.3C565.897 95.1933 562.817 97.4333 559.177 99.02C555.63 100.607 551.43 101.4 546.577 101.4C541.817 101.4 537.663 100.56 534.117 98.88C530.663 97.1067 527.817 94.7267 525.577 91.74V123.1C525.577 124.127 525.25 124.967 524.597 125.62C523.943 126.273 523.15 126.6 522.217 126.6H507.797ZM540.277 84.6C543.823 84.6 546.623 83.8533 548.677 82.36C550.73 80.7733 552.177 78.72 553.017 76.2C553.95 73.68 554.51 70.9267 554.697 67.94C554.883 65.0467 554.883 62.1533 554.697 59.26C554.51 56.2733 553.95 53.52 553.017 51C552.177 48.48 550.73 46.4733 548.677 44.98C546.623 43.3933 543.823 42.6 540.277 42.6C536.823 42.6 534.023 43.3933 531.877 44.98C529.73 46.5667 528.19 48.5733 527.257 51C526.323 53.4267 525.763 56.04 525.577 58.84C525.483 60.52 525.437 62.2467 525.437 64.02C525.437 65.7933 525.483 67.5667 525.577 69.34C525.67 71.9533 526.23 74.4267 527.257 76.76C528.377 79 529.963 80.8667 532.017 82.36C534.163 83.8533 536.917 84.6 540.277 84.6ZM624.706 101.4C616.96 101.4 610.473 100.14 605.246 97.62C600.02 95.0067 596.006 91.32 593.206 86.56C590.5 81.8 589.006 76.2467 588.726 69.9C588.633 68.0333 588.586 65.9333 588.586 63.6C588.586 61.1733 588.633 59.0733 588.726 57.3C589.006 50.86 590.593 45.3067 593.486 40.64C596.38 35.88 600.44 32.24 605.666 29.72C610.893 27.1067 617.24 25.8 624.706 25.8C632.08 25.8 638.38 27.1067 643.606 29.72C648.833 32.24 652.893 35.88 655.786 40.64C658.68 45.3067 660.266 50.86 660.546 57.3C660.733 59.0733 660.826 61.1733 660.826 63.6C660.826 65.9333 660.733 68.0333 660.546 69.9C660.266 76.2467 658.726 81.8 655.926 86.56C653.22 91.32 649.253 95.0067 644.026 97.62C638.8 100.14 632.36 101.4 624.706 101.4ZM624.706 86C629.28 86 632.733 84.6 635.066 81.8C637.4 78.9067 638.66 74.7067 638.846 69.2C638.94 67.8 638.986 65.9333 638.986 63.6C638.986 61.2667 638.94 59.4 638.846 58C638.66 52.5867 637.4 48.4333 635.066 45.54C632.733 42.6467 629.28 41.2 624.706 41.2C620.133 41.2 616.633 42.6467 614.206 45.54C611.873 48.4333 610.613 52.5867 610.426 58C610.333 59.4 610.286 61.2667 610.286 63.6C610.286 65.9333 610.333 67.8 610.426 69.2C610.613 74.7067 611.873 78.9067 614.206 81.8C616.633 84.6 620.133 86 624.706 86ZM678.828 100C677.895 100 677.102 99.6733 676.448 99.02C675.795 98.3667 675.468 97.5267 675.468 96.5V30.7C675.468 29.7667 675.795 28.9733 676.448 28.32C677.102 27.5733 677.895 27.2 678.828 27.2H692.548C693.482 27.2 694.275 27.5733 694.928 28.32C695.675 28.9733 696.048 29.7667 696.048 30.7V36.3C698.382 33.4067 701.228 31.1667 704.588 29.58C708.042 27.9933 712.008 27.2 716.488 27.2H722.508C723.442 27.2 724.235 27.5267 724.888 28.18C725.542 28.8333 725.868 29.6733 725.868 30.7V42.74C725.868 43.7667 725.542 44.6067 724.888 45.26C724.235 45.9133 723.442 46.24 722.508 46.24H710.188C706.082 46.24 702.862 47.4067 700.528 49.74C698.195 51.98 697.028 55.2 697.028 59.4V96.5C697.028 97.5267 696.702 98.3667 696.048 99.02C695.395 99.6733 694.555 100 693.528 100H678.828ZM771.308 100C765.522 100 760.575 99.0667 756.468 97.2C752.362 95.24 749.235 92.2533 747.088 88.24C745.035 84.2267 744.008 79.1867 744.008 73.12V43.72H733.088C732.062 43.72 731.222 43.3933 730.568 42.74C729.915 42.0867 729.588 41.2467 729.588 40.22V30.7C729.588 29.6733 729.915 28.8333 730.568 28.18C731.222 27.5267 732.062 27.2 733.088 27.2H744.008V4.09999C744.008 3.07333 744.335 2.23333 744.988 1.58C745.735 0.926663 746.575 0.599995 747.508 0.599995H761.228C762.255 0.599995 763.095 0.926663 763.748 1.58C764.402 2.23333 764.728 3.07333 764.728 4.09999V27.2H782.228C783.162 27.2 783.955 27.5267 784.608 28.18C785.262 28.8333 785.588 29.6733 785.588 30.7V40.22C785.588 41.2467 785.262 42.0867 784.608 42.74C783.955 43.3933 783.162 43.72 782.228 43.72H764.728V71.44C764.728 74.9867 765.335 77.7867 766.548 79.84C767.855 81.8 770.095 82.78 773.268 82.78H783.488C784.422 82.78 785.215 83.1067 785.868 83.76C786.522 84.4133 786.848 85.2067 786.848 86.14V96.5C786.848 97.5267 786.522 98.3667 785.868 99.02C785.215 99.6733 784.422 100 783.488 100H771.308Z" fill="#4CA89D"/>
</svg>
